<?xml version="1.0" encoding="UTF-8" standalone="no"?>
<svg
   xmlns:dc="http://purl.org/dc/elements/1.1/"
   xmlns:cc="http://creativecommons.org/ns#"
   xmlns:rdf="http://www.w3.org/1999/02/22-rdf-syntax-ns#"
   xmlns:svg="http://www.w3.org/2000/svg"
   xmlns="http://www.w3.org/2000/svg"
   viewBox="65 260 515 60"
   height="60"
   width="515"
   xml:space="preserve"
   id="svg2"
   version="1.1"><metadata
     id="metadata8"><rdf:RDF><cc:Work
         rdf:about=""><dc:format>image/svg+xml</dc:format><dc:type
           rdf:resource="http://purl.org/dc/dcmitype/StillImage" /></cc:Work></rdf:RDF></metadata><defs
     id="defs6"><linearGradient
       id="linearGradient34"
       spreadMethod="pad"
       gradientTransform="matrix(0.673286,0,0,0.673286,206.33575,128.56583)"
       gradientUnits="userSpaceOnUse"
       y2="24.6"
       x2="75.400002"
       y1="24.6"
       x1="24.6"><stop
         id="stop26"
         offset="0"
         style="stop-opacity:1;stop-color:#b68648" /><stop
         id="stop28"
         offset="0.05"
         style="stop-opacity:1;stop-color:#b68648" /><stop
         id="stop30"
         offset="0.95"
         style="stop-opacity:1;stop-color:#fbf3a3" /><stop
         id="stop32"
         offset="1"
         style="stop-opacity:1;stop-color:#fbf3a3" /></linearGradient><linearGradient
       id="linearGradient56"
       spreadMethod="pad"
       gradientTransform="matrix(0.673286,0,0,0.673286,206.33575,128.56583)"
       gradientUnits="userSpaceOnUse"
       y2="2.419477"
       x2="61.174999"
       y1="2.419477"
       x1="8.3999996"><stop
         id="stop48"
         offset="0"
         style="stop-opacity:1;stop-color:#b68648" /><stop
         id="stop50"
         offset="0.05"
         style="stop-opacity:1;stop-color:#b68648" /><stop
         id="stop52"
         offset="0.95"
         style="stop-opacity:1;stop-color:#fbf3a3" /><stop
         id="stop54"
         offset="1"
         style="stop-opacity:1;stop-color:#fbf3a3" /></linearGradient><linearGradient
       id="linearGradient78"
       spreadMethod="pad"
       gradientTransform="matrix(0.673286,0,0,0.673286,206.33575,128.56583)"
       gradientUnits="userSpaceOnUse"
       y2="47.099998"
       x2="91.599998"
       y1="47.099998"
       x1="38.825001"><stop
         id="stop70"
         offset="0"
         style="stop-opacity:1;stop-color:#b68648" /><stop
         id="stop72"
         offset="0.05"
         style="stop-opacity:1;stop-color:#b68648" /><stop
         id="stop74"
         offset="0.95"
         style="stop-opacity:1;stop-color:#fbf3a3" /><stop
         id="stop76"
         offset="1"
         style="stop-opacity:1;stop-color:#fbf3a3" /></linearGradient><linearGradient
       id="linearGradient100"
       spreadMethod="pad"
       gradientTransform="matrix(0.673286,0,0,0.673286,206.33575,128.56583)"
       gradientUnits="userSpaceOnUse"
       y2="40.875"
       x2="62.412907"
       y1="40.875"
       x1="37.575001"><stop
         id="stop92"
         offset="0"
         style="stop-opacity:1;stop-color:#b68648" /><stop
         id="stop94"
         offset="0.05"
         style="stop-opacity:1;stop-color:#b68648" /><stop
         id="stop96"
         offset="0.95"
         style="stop-opacity:1;stop-color:#fbf3a3" /><stop
         id="stop98"
         offset="1"
         style="stop-opacity:1;stop-color:#fbf3a3" /></linearGradient><linearGradient
       id="linearGradient122"
       spreadMethod="pad"
       gradientTransform="matrix(0.426688,0,0,0.426688,52.024665,229.56199)"
       gradientUnits="userSpaceOnUse"
       y2="-58.880001"
       x2="880.42999"
       y1="-58.880001"
       x1="0.66000003"><stop
         id="stop114"
         offset="0"
         style="stop-opacity:1;stop-color:#b68648" /><stop
         id="stop116"
         offset="0.05"
         style="stop-opacity:1;stop-color:#b68648" /><stop
         id="stop118"
         offset="0.95"
         style="stop-opacity:1;stop-color:#fbf3a3" /><stop
         id="stop120"
         offset="1"
         style="stop-opacity:1;stop-color:#fbf3a3" /></linearGradient></defs><g
     transform="matrix(1.3333333,0,0,1.3333333,0,1.2e-5)"
     id="g10"><g
       id="g12"><g
         id="g104"><g
           id="g106"><g
             id="g112"><path
               id="path124"
               style="fill:url(#linearGradient122);stroke:none"
               d="m 70.953,229.562 -1.539,-4.515 h -9.273 l -1.536,4.515 h -6.3 L 61.363,205 h 6.899 l 9.062,24.562 z M 61.68,220.5 h 6.195 l -3.078,-9.098 z m 40.203,-3.359 c 0,2.425 -0.52,4.578 -1.559,6.457 -1.035,1.875 -2.531,3.34 -4.48,4.39 -1.946,1.051 -4.235,1.574 -6.871,1.574 h -9.34 v -24.734 h 9.34 c 2.66,0 4.957,0.512 6.894,1.535 1.934,1.028 3.422,2.473 4.457,4.34 1.039,1.867 1.559,4.012 1.559,6.438 z m -13.438,7.066 c 2.336,0 4.149,-0.617 5.442,-1.852 1.293,-1.238 1.941,-2.976 1.941,-5.214 0,-2.239 -0.648,-3.977 -1.941,-5.215 -1.293,-1.235 -3.106,-1.852 -5.442,-1.852 h -2.832 v 14.133 z m 33.696,5.355 -1.539,-4.515 h -9.274 l -1.539,4.515 h -6.297 L 112.555,205 h 6.89 l 9.063,24.562 z m -9.27,-9.062 h 6.191 l -3.078,-9.098 z m 27.641,0.383 h -3.707 v 8.679 h -5.989 v -24.734 h 9.696 c 2.937,0 5.176,0.727 6.715,2.184 1.539,1.461 2.308,3.426 2.308,5.898 0,1.539 -0.344,2.906 -1.027,4.106 -0.688,1.203 -1.711,2.148 -3.063,2.836 -1.355,0.687 -3,1.031 -4.933,1.031 z m -0.668,-4.793 c 2.406,0 3.605,-1.059 3.605,-3.18 0,-2.172 -1.199,-3.258 -3.605,-3.258 h -3.039 v 6.438 z m 11.023,-11.262 h 19.383 v 4.758 h -6.719 v 19.976 h -6.015 v -19.976 h -6.649 z m 51.016,24.734 h -6.024 l -2.867,-3.464 c -0.23,0.371 -0.43,0.664 -0.594,0.875 -0.515,0.863 -1.265,1.55 -2.257,2.066 -0.993,0.512 -2.141,0.766 -3.446,0.766 -1.656,0 -3.086,-0.336 -4.289,-1.012 -1.199,-0.676 -2.113,-1.594 -2.742,-2.746 -0.633,-1.156 -0.945,-2.457 -0.945,-3.902 0,-2.032 0.535,-3.692 1.605,-4.989 1.078,-1.293 2.453,-2.043 4.133,-2.254 l -0.418,-0.699 c -0.375,-0.586 -0.656,-1.168 -0.844,-1.75 -0.187,-0.586 -0.281,-1.226 -0.281,-1.926 0,-1.05 0.281,-2.031 0.844,-2.941 0.558,-0.906 1.379,-1.633 2.465,-2.184 1.082,-0.547 2.382,-0.824 3.898,-0.824 2.125,0 3.774,0.449 4.938,1.348 1.168,0.902 1.961,2.074 2.379,3.519 0.324,1.024 0.453,2.157 0.382,3.391 h -5.558 c 0,-0.395 -0.028,-0.828 -0.074,-1.293 -0.067,-1.328 -0.723,-1.992 -1.958,-1.992 -0.511,0 -0.925,0.148 -1.242,0.453 -0.316,0.305 -0.472,0.687 -0.472,1.156 0,0.395 0.086,0.754 0.261,1.082 0.176,0.328 0.461,0.758 0.86,1.293 z m -15.117,-4.722 c 0.816,0 1.488,-0.258 2.011,-0.77 0.524,-0.515 0.785,-1.168 0.785,-1.961 0,-0.816 -0.289,-1.492 -0.874,-2.027 -0.583,-0.539 -1.282,-0.809 -2.098,-0.809 -0.817,0 -1.477,0.235 -1.977,0.7 -0.5,0.468 -0.75,1.132 -0.75,2 0,0.859 0.274,1.554 0.821,2.078 0.546,0.523 1.242,0.789 2.082,0.789 z m 35.828,-20.262 c 3.101,0 5.656,0.758 7.664,2.277 2.004,1.516 3.25,3.567 3.742,6.157 h -6.332 c -0.422,-0.887 -1.063,-1.59 -1.926,-2.117 -0.863,-0.524 -1.898,-0.786 -3.113,-0.786 -1.891,0 -3.406,0.637 -4.551,1.907 -1.144,1.273 -1.715,2.992 -1.715,5.16 0,2.355 0.602,4.164 1.805,5.422 1.199,1.261 2.91,1.89 5.125,1.89 1.422,0 2.668,-0.39 3.742,-1.172 1.074,-0.781 1.832,-1.894 2.274,-3.343 h -7.555 v -4.301 h 12.558 v 5.91 c -0.464,1.449 -1.21,2.789 -2.238,4.023 -1.027,1.239 -2.34,2.243 -3.933,3.012 -1.598,0.77 -3.426,1.153 -5.481,1.153 -2.492,0 -4.672,-0.528 -6.539,-1.59 -1.867,-1.063 -3.309,-2.547 -4.324,-4.461 -1.012,-1.914 -1.52,-4.094 -1.52,-6.543 0,-2.449 0.508,-4.629 1.52,-6.543 1.015,-1.914 2.453,-3.403 4.305,-4.461 1.855,-1.063 4.019,-1.594 6.492,-1.594 z m 26.832,-0.14 c 2.336,0 4.453,0.542 6.355,1.632 1.899,1.082 3.399,2.586 4.492,4.512 1.098,1.922 1.649,4.098 1.649,6.523 0,2.43 -0.555,4.61 -1.664,6.543 -1.106,1.938 -2.613,3.45 -4.516,4.532 -1.898,1.082 -4.004,1.625 -6.316,1.625 -2.305,0 -4.41,-0.543 -6.313,-1.625 -1.902,-1.082 -3.406,-2.594 -4.515,-4.532 -1.106,-1.933 -1.66,-4.113 -1.66,-6.543 0,-2.425 0.554,-4.601 1.66,-6.523 1.109,-1.926 2.613,-3.43 4.515,-4.512 1.903,-1.09 4.008,-1.632 6.313,-1.632 z m 0,5.566 c -1.957,0 -3.512,0.633 -4.668,1.906 -1.153,1.27 -1.731,3.004 -1.731,5.195 0,2.168 0.578,3.895 1.731,5.176 1.156,1.285 2.711,1.926 4.668,1.926 1.937,0 3.492,-0.641 4.656,-1.926 1.168,-1.281 1.75,-3.008 1.75,-5.176 0,-2.167 -0.578,-3.894 -1.73,-5.179 -1.157,-1.281 -2.715,-1.922 -4.676,-1.922 z m 21.242,-5.176 h 19.383 v 4.758 h -6.719 v 19.976 h -6.016 v -19.976 h -6.648 z m 37.262,0 h 6.015 v 24.734 h -6.015 v -10.32 h -9.379 v 10.32 h -5.981 v -24.734 h 5.981 v 9.582 h 9.379 z m 25.543,4.758 h -9.414 v 5.176 h 8.363 v 4.511 h -8.363 v 5.497 h 9.414 v 4.792 h -15.395 v -24.734 h 15.395 z m 22.707,19.976 h -6.614 l -5.355,-9.339 h -1.363 v 9.339 h -5.985 v -24.734 h 10.219 c 1.957,0 3.613,0.336 4.969,1.012 1.355,0.676 2.367,1.601 3.043,2.781 0.676,1.176 1.015,2.524 1.015,4.039 0,1.797 -0.496,3.328 -1.484,4.586 -0.996,1.258 -2.434,2.121 -4.324,2.586 z m -13.332,-19.699 v 6.262 h 3.711 c 1.191,0 2.062,-0.262 2.625,-0.785 0.558,-0.528 0.836,-1.301 0.836,-2.328 0,-0.981 -0.286,-1.75 -0.86,-2.309 -0.566,-0.562 -1.433,-0.84 -2.601,-0.84 z m 33.136,19.699 -1.543,-4.515 h -9.269 l -1.543,4.515 h -6.297 L 366.395,205 h 6.89 l 9.067,24.562 z m -9.273,-9.062 h 6.191 l -3.074,-9.098 z m 27.641,0.383 h -3.707 v 8.679 h -5.989 v -24.734 h 9.696 c 2.937,0 5.179,0.727 6.718,2.184 1.535,1.461 2.305,3.426 2.305,5.898 0,1.539 -0.34,2.906 -1.027,4.106 -0.688,1.203 -1.707,2.148 -3.063,2.836 -1.355,0.687 -3,1.031 -4.933,1.031 z m -0.664,-4.793 c 2.402,0 3.605,-1.059 3.605,-3.18 0,-2.172 -1.203,-3.258 -3.605,-3.258 h -3.043 v 6.438 z m 27.222,-11.262 h 6.785 l -8.574,16.512 v 8.222 h -6.016 v -8.222 l -8.574,-16.512 h 6.86 l 4.757,10.074 z" /></g></g></g></g></g></svg>