<svg height="35" viewBox="70 273 500 35" width="505" xmlns="http://www.w3.org/2000/svg" xmlns:xlink="http://www.w3.org/1999/xlink"><linearGradient id="a" gradientUnits="userSpaceOnUse" spreadMethod="pad" x1="52.306279" x2="427.693577" y1="204.4386" y2="204.4386"><stop offset="0" stop-color="#b68648"/><stop offset=".05" stop-color="#b68648"/><stop offset=".95" stop-color="#fbf3a3"/><stop offset="1" stop-color="#fbf3a3"/></linearGradient><path d="m70.953 229.562-1.539-4.515h-9.273l-1.536 4.515h-6.3l9.058-24.562h6.899l9.062 24.562zm-9.273-9.062h6.195l-3.078-9.098zm40.203-3.359c0 2.425-.52 4.578-1.559 6.457-1.035 1.875-2.531 3.34-4.48 4.39-1.946 1.051-4.235 1.574-6.871 1.574h-9.34v-24.734h9.34c2.66 0 4.957.512 6.894 1.535 1.934 1.028 3.422 2.473 4.457 4.34 1.039 1.867 1.559 4.012 1.559 6.438zm-13.438 7.066c2.336 0 4.149-.617 5.442-1.852 1.293-1.238 1.941-2.976 1.941-5.214 0-2.239-.648-3.977-1.941-5.215-1.293-1.235-3.106-1.852-5.442-1.852h-2.832v14.133zm33.696 5.355-1.539-4.515h-9.274l-1.539 4.515h-6.297l9.063-24.562h6.89l9.063 24.562zm-9.27-9.062h6.191l-3.078-9.098zm27.641.383h-3.707v8.679h-5.989v-24.734h9.696c2.937 0 5.176.727 6.715 2.184 1.539 1.461 2.308 3.426 2.308 5.898 0 1.539-.344 2.906-1.027 4.106-.688 1.203-1.711 2.148-3.063 2.836-1.355.687-3 1.031-4.933 1.031zm-.668-4.793c2.406 0 3.605-1.059 3.605-3.18 0-2.172-1.199-3.258-3.605-3.258h-3.039v6.438zm11.023-11.262h19.383v4.758h-6.719v19.976h-6.015v-19.976h-6.649zm51.016 24.734h-6.024l-2.867-3.464c-.23.371-.43.664-.594.875-.515.863-1.265 1.55-2.257 2.066-.993.512-2.141.766-3.446.766-1.656 0-3.086-.336-4.289-1.012-1.199-.676-2.113-1.594-2.742-2.746-.633-1.156-.945-2.457-.945-3.902 0-2.032.535-3.692 1.605-4.989 1.078-1.293 2.453-2.043 4.133-2.254l-.418-.699c-.375-.586-.656-1.168-.844-1.75-.187-.586-.281-1.226-.281-1.926 0-1.05.281-2.031.844-2.941.558-.906 1.379-1.633 2.465-2.184 1.082-.547 2.382-.824 3.898-.824 2.125 0 3.774.449 4.938 1.348 1.168.902 1.961 2.074 2.379 3.519.324 1.024.453 2.157.382 3.391h-5.558c0-.395-.028-.828-.074-1.293-.067-1.328-.723-1.992-1.958-1.992-.511 0-.925.148-1.242.453-.316.305-.472.687-.472 1.156 0 .395.086.754.261 1.082.176.328.461.758.86 1.293zm-15.117-4.722c.816 0 1.488-.258 2.011-.77.524-.515.785-1.168.785-1.961 0-.816-.289-1.492-.874-2.027-.583-.539-1.282-.809-2.098-.809-.817 0-1.477.235-1.977.7-.5.468-.75 1.132-.75 2 0 .859.274 1.554.821 2.078.546.523 1.242.789 2.082.789zm35.828-20.262c3.101 0 5.656.758 7.664 2.277 2.004 1.516 3.25 3.567 3.742 6.157h-6.332c-.422-.887-1.063-1.59-1.926-2.117-.863-.524-1.898-.786-3.113-.786-1.891 0-3.406.637-4.551 1.907-1.144 1.273-1.715 2.992-1.715 5.16 0 2.355.602 4.164 1.805 5.422 1.199 1.261 2.91 1.89 5.125 1.89 1.422 0 2.668-.39 3.742-1.172 1.074-.781 1.832-1.894 2.274-3.343h-7.555v-4.301h12.558v5.91c-.464 1.449-1.21 2.789-2.238 4.023-1.027 1.239-2.34 2.243-3.933 3.012-1.598.77-3.426 1.153-5.481 1.153-2.492 0-4.672-.528-6.539-1.59-1.867-1.063-3.309-2.547-4.324-4.461-1.012-1.914-1.52-4.094-1.52-6.543s.508-4.629 1.52-6.543c1.015-1.914 2.453-3.403 4.305-4.461 1.855-1.063 4.019-1.594 6.492-1.594zm26.832-.14c2.336 0 4.453.542 6.355 1.632 1.899 1.082 3.399 2.586 4.492 4.512 1.098 1.922 1.649 4.098 1.649 6.523 0 2.43-.555 4.61-1.664 6.543-1.106 1.938-2.613 3.45-4.516 4.532-1.898 1.082-4.004 1.625-6.316 1.625-2.305 0-4.41-.543-6.313-1.625-1.902-1.082-3.406-2.594-4.515-4.532-1.106-1.933-1.66-4.113-1.66-6.543 0-2.425.554-4.601 1.66-6.523 1.109-1.926 2.613-3.43 4.515-4.512 1.903-1.09 4.008-1.632 6.313-1.632zm0 5.566c-1.957 0-3.512.633-4.668 1.906-1.153 1.27-1.731 3.004-1.731 5.195 0 2.168.578 3.895 1.731 5.176 1.156 1.285 2.711 1.926 4.668 1.926 1.937 0 3.492-.641 4.656-1.926 1.168-1.281 1.75-3.008 1.75-5.176 0-2.167-.578-3.894-1.73-5.179-1.157-1.281-2.715-1.922-4.676-1.922zm21.242-5.176h19.383v4.758h-6.719v19.976h-6.016v-19.976h-6.648zm37.262 0h6.015v24.734h-6.015v-10.32h-9.379v10.32h-5.981v-24.734h5.981v9.582h9.379zm25.543 4.758h-9.414v5.176h8.363v4.511h-8.363v5.497h9.414v4.792h-15.395v-24.734h15.395zm22.707 19.976h-6.614l-5.355-9.339h-1.363v9.339h-5.985v-24.734h10.219c1.957 0 3.613.336 4.969 1.012 1.355.676 2.367 1.601 3.043 2.781.676 1.176 1.015 2.524 1.015 4.039 0 1.797-.496 3.328-1.484 4.586-.996 1.258-2.434 2.121-4.324 2.586zm-13.332-19.699v6.262h3.711c1.191 0 2.062-.262 2.625-.785.558-.528.836-1.301.836-2.328 0-.981-.286-1.75-.86-2.309-.566-.562-1.433-.84-2.601-.84zm33.136 19.699-1.543-4.515h-9.269l-1.543 4.515h-6.297l9.063-24.562h6.89l9.067 24.562zm-9.273-9.062h6.191l-3.074-9.098zm27.641.383h-3.707v8.679h-5.989v-24.734h9.696c2.937 0 5.179.727 6.718 2.184 1.535 1.461 2.305 3.426 2.305 5.898 0 1.539-.34 2.906-1.027 4.106-.688 1.203-1.707 2.148-3.063 2.836-1.355.687-3 1.031-4.933 1.031zm-.664-4.793c2.402 0 3.605-1.059 3.605-3.18 0-2.172-1.203-3.258-3.605-3.258h-3.043v6.438zm27.222-11.262h6.785l-8.574 16.512v8.222h-6.016v-8.222l-8.574-16.512h6.86l4.757 10.074z" fill="url(#a)" transform="matrix(1.3333333 0 0 1.3333333 0 .000012)"/></svg>